<svg xmlns="http://www.w3.org/2000/svg" viewBox="0 0 40 40">
  <rect width="40" height="40" rx="8" fill="#4CAF50"/>
  <circle cx="20" cy="20" r="14" fill="white" opacity="0.95"/>
  <g transform="translate(8,7) scale(1)">
    <path fill="#4CAF50" d="M6.05,8.05c-2.73,2.73 -2.73,7.15 -0.02,9.88c1.47,-3.4 4.09,-6.24 7.36,-7.93c-2.68,2.89 -4.32,6.73 -4.32,10.96c0,0.52 0.02,1.04 0.07,1.56c0.62,0.09 1.27,0.14 1.91,0.14c5.18,0 9.71,-2.78 12.2,-6.92c0,-0.01 0,-0.01 0,-0.02c0.01,-4.14 -1.57,-8.28 -4.74,-11.45c-2.73,-2.73 -7.17,-2.73 -9.9,0L6.05,8.05z"/>
  </g>
</svg>
